<svg xmlns="http://www.w3.org/2000/svg" width="412.608" height="56.08" viewBox="0 0 386.82 52.575">
    <g style="line-height:125%" font-weight="400" font-size="40" font-family="sans-serif" letter-spacing="0" word-spacing="0">
        <path d="M2.625 2.7v47.25H6.9L24.15 30.3v-5.625h-11.7V2.7H2.625zm10.8-2.625l1.65 1.8V22.05h10.05l1.65 1.8v7.425l-19.05 21.3H1.65L0 50.775v-48.9l1.65-1.8h11.775zM41.85 2.7v21.975h-11.7V30.3L47.4 49.95h4.275V2.7H41.85zM52.65.075l1.65 1.8v48.9l-1.65 1.8h-6.075l-19.05-21.3V23.85l1.65-1.8h10.05V1.875l1.65-1.8H52.65z" fill="#f2d91a"/>
        <path d="M99.836 18.825H57.31l-1.5 1.125v31.5l1.5 1.125h45.9l1.575-1.125V39.825l-1.5-1.8h-32.25v-4.2h12.9q3.75-.225 6.45-1.425 2.775-1.275 4.5-2.85 1.8-1.65 3.375-4.8t1.575-5.925zm-41.4 2.625h37.95q-.525 2.325-2.25 4.575-1.725 2.175-4.125 3.6-2.4 1.35-6.375 1.575H68.41v9.45h33.75v9.3H58.436v-28.5zM57.31 14.7l-1.5-1.125V1.2l1.5-1.125h45.975l1.5 1.125v12.375l-1.5 1.125H57.31zm44.85-2.625V2.7H58.436v9.375h43.725z" fill="#f2d91a"/>
        <path d="M161.023 18.825q0 3.225-1.65 6.075t-3.525 4.5q-1.8 1.575-4.725 3t-6.675 1.425v2.625q6.225 0 9.15 1.8 3 1.725 5.025 5.1 2.025 3.375 2.025 6.225v3h-52.8l-1.5-1.125V18.825h15.225V36.45h12.75v-2.625h-8.475v-15h35.175zm-32.55 2.625v9.75h8.25v7.875h-17.775V21.45h-9.975v28.5h49.125q0-1.875-1.05-4.125-1.05-2.325-3.75-4.725-2.625-2.4-11.775-2.175V31.2q5.475 0 8.7-1.5 3.3-1.5 5.025-3.375 2.025-2.175 2.775-4.875h-29.55zM106.348 1.2l1.5-1.2h37.2q3.375 0 6.3 1.35 3 1.35 5.175 3.45 2.25 2.1 3.45 4.875 1.275 2.7 1.275 5.025h-54.9V1.2zm39.075 1.5h-36.45v9.375h48.9q-.825-3-2.85-4.95-2.025-2.025-4.35-3.225-2.25-1.2-5.25-1.2z" fill="#f2d91a"/>
        <path d="M162.158 1.875l1.65-1.8h17.325l1.65 1.8V12.9l-1.65 1.8h-17.325l-1.65-1.8V1.875zm2.625 10.2h15.375V2.7h-15.375v9.375zm55.125 8.775l1.65-1.8h11.85l1.65 1.8v29.925l-1.65 1.8h-11.85l-1.65-1.8V20.85zm2.625 29.1h9.9V21.675h-9.9V49.95zm53.4-30.9l-.15 1.05q-.075.975-.6 2.55-.525 1.5-1.575 3.375-1.05 1.8-2.85 3.45-1.8 1.575-4.575 2.775-2.775 1.2-6.525 1.575l16.275 15.825v2.925h-16.875l-21.3-21.9V20.85l1.65-1.8h36.525zm-35.55 10.8l20.025 20.1h12L253.433 31.2h5.625q4.275-.3 6.825-1.725 2.625-1.5 4.2-3.3 1.875-2.1 2.4-4.5h-32.1v8.175zM259.958.075q3.375 0 6.3 1.35 3 1.35 5.175 3.375 2.25 1.95 3.375 4.5 1.2 2.55 1.125 5.4h-73.575q-1.275 0-1.275 1.2v34.875l-1.725 1.8h-11.775l-1.65-1.8V13.95q0-2.7 1.425-5.175 1.425-2.55 3.45-4.425 2.1-1.95 4.275-3.075 2.25-1.2 4.2-1.2h60.675zm12.525 12q0-.975-.75-2.25-.75-1.35-2.55-3-1.725-1.725-3.9-2.775-2.1-1.125-5.85-1.35h-58.65q-3.15 0-5.325 1.35-2.175 1.35-3.975 3.45-1.8 2.025-2.4 3.9-.525 1.8-.525 3.45v35.1h9.825V15.675q0-.525.3-1.125.3-.675.75-1.2.45-.525.975-.9.6-.375 1.275-.375h70.8z" fill="#00c2cc"/>
        <path d="M277.441 26.325q0-5.4 2.1-10.2 2.175-4.8 5.7-8.325 3.6-3.525 8.475-5.625t10.5-2.1q5.55 0 10.425 2.1 4.95 2.1 8.475 5.625 3.6 3.525 5.7 8.325 2.175 4.8 2.175 10.2 0 5.475-2.175 10.275-2.1 4.8-5.7 8.325-3.525 3.525-8.475 5.625-4.875 2.025-10.425 2.025-5.625 0-10.5-2.025-4.875-2.1-8.475-5.625-3.525-3.525-5.7-8.325-2.1-4.8-2.1-10.275zm2.7 0q0 4.8 1.875 9.15 1.95 4.35 5.175 7.575 3.3 3.15 7.725 5.025 4.425 1.875 9.375 1.875t9.375-1.875q4.5-1.875 7.8-5.025 3.3-3.225 5.175-7.575 1.95-4.35 1.95-9.15 0-4.8-1.95-9.15-1.875-4.35-5.175-7.5-3.3-3.225-7.8-5.1-4.425-1.875-9.375-1.875t-9.375 1.875q-4.425 1.875-7.725 5.1-3.225 3.15-5.175 7.5-1.875 4.35-1.875 9.15zm9.9.375q0-2.925 1.125-5.475t3.075-4.425q1.95-1.95 4.575-3.075 2.625-1.125 5.55-1.125t5.55 1.125q2.7 1.125 4.65 3.075 1.95 1.875 3.075 4.425 1.2 2.55 1.2 5.475t-1.2 5.475q-1.125 2.55-3.075 4.5-1.95 1.875-4.65 3-2.625 1.05-5.55 1.05t-5.55-1.05q-2.625-1.125-4.575-3-1.95-1.95-3.075-4.5-1.125-2.55-1.125-5.475zm2.625 0q0 2.4.9 4.425.975 2.025 2.55 3.6 1.65 1.575 3.75 2.475 2.175.9 4.575.9 2.325 0 4.425-.9 2.175-.9 3.825-2.475 1.65-1.575 2.55-3.6.975-2.025.975-4.425t-.975-4.425q-.9-2.025-2.55-3.6-1.65-1.575-3.825-2.475-2.1-.975-4.425-.975-2.4 0-4.575.975-2.1.9-3.75 2.475-1.575 1.575-2.55 3.6-.9 2.025-.9 4.425z" fill="#00c2cc"/>
        <path d="M344.97 49.95v-21.3h11.7v-6.3L339.42 2.7h-4.275v47.25h9.825zm-10.8 2.625l-1.65-1.8v-48.9l1.65-1.8h6.075l19.05 21.3v8.1l-1.65 1.8h-10.05v19.5l-1.65 1.8H334.17zM374.37 2.7V24h-11.7v6.3l17.25 19.65h4.275V2.7h-9.825zm10.8-2.625l1.65 1.8v48.9l-1.65 1.8h-6.075l-19.05-21.3v-8.1l1.65-1.8h10.05v-19.5l1.65-1.8h11.775z" fill="#00c2cc"/>
    </g>
</svg>
