<?xml version="1.0" encoding="UTF-8" standalone="no"?>
<!-- Created with Inkscape (http://www.inkscape.org/) -->

<svg
   xmlns:dc="http://purl.org/dc/elements/1.1/"
   xmlns:cc="http://creativecommons.org/ns#"
   xmlns:rdf="http://www.w3.org/1999/02/22-rdf-syntax-ns#"
   xmlns:svg="http://www.w3.org/2000/svg"
   xmlns="http://www.w3.org/2000/svg"
   xmlns:sodipodi="http://sodipodi.sourceforge.net/DTD/sodipodi-0.dtd"
   xmlns:inkscape="http://www.inkscape.org/namespaces/inkscape"
   width="109.16907mm"
   height="14.837833mm"
   viewBox="0 0 386.81953 52.575"
   id="svg2"
   version="1.1"
   inkscape:version="0.91 r13725"
   sodipodi:docname="webtron.svg">
  <defs
     id="defs4" />
  <sodipodi:namedview
     id="base"
     pagecolor="#ffffff"
     bordercolor="#666666"
     borderopacity="1.0"
     inkscape:pageopacity="0.0"
     inkscape:pageshadow="2"
     inkscape:zoom="1"
     inkscape:cx="195"
     inkscape:cy="280"
     inkscape:document-units="px"
     inkscape:current-layer="layer1"
     showgrid="false"
     fit-margin-top="0"
     fit-margin-left="0"
     fit-margin-right="0"
     fit-margin-bottom="0"
     inkscape:window-width="1440"
     inkscape:window-height="881"
     inkscape:window-x="0"
     inkscape:window-y="19"
     inkscape:window-maximized="0" />
  <metadata
     id="metadata7">
    <rdf:RDF>
      <cc:Work
         rdf:about="">
        <dc:format>image/svg+xml</dc:format>
        <dc:type
           rdf:resource="http://purl.org/dc/dcmitype/StillImage" />
        <dc:title></dc:title>
      </cc:Work>
    </rdf:RDF>
  </metadata>
  <g
     inkscape:label="Layer 1"
     inkscape:groupmode="layer"
     id="layer1"
     transform="translate(2.5e-7,-999.78721)">
    <g
       transform="translate(-46.464844,235.40127)"
       style="font-style:normal;font-weight:normal;font-size:40px;line-height:125%;font-family:sans-serif;letter-spacing:0px;word-spacing:0px;fill:#000000;fill-opacity:1;stroke:none;stroke-width:1px;stroke-linecap:butt;stroke-linejoin:miter;stroke-opacity:1"
       id="flowRoot4136">
      <path
         d="m 49.089844,767.08594 0,47.25 4.275,0 17.25,-19.65 0,-5.625 -11.7,0 0,-21.975 -9.825,0 z m 10.8,-2.625 1.65,1.8 0,20.175 10.05,0 1.65,1.8 0,7.425 -19.05,21.3 -6.075,0 -1.65,-1.8 0,-48.9 1.65,-1.8 11.775,0 z m 28.425,2.625 0,21.975 -11.7,0 0,5.625 17.25,19.65 4.275,0 0,-47.25 -9.825,0 z m 10.8,-2.625 1.649996,1.8 0,48.9 -1.649996,1.8 -6.075,0 -19.05,-21.3 0,-7.425 1.65,-1.8 10.05,0 0,-20.175 1.65,-1.8 11.775,0 z"
         style="fill:#f2d91a;fill-opacity:1"
         id="path4184" />
      <path
         d="m 146.30039,783.21094 -42.525,0 -1.5,1.125 0,31.5 1.5,1.125 45.9,0 1.575,-1.125 0,-11.625 -1.5,-1.8 -32.25,0 0,-4.2 12.9,0 q 3.75,-0.225 6.45,-1.425 2.775,-1.275 4.5,-2.85 1.8,-1.65 3.375,-4.8 1.575,-3.15 1.575,-5.925 z m -41.4,2.625 37.95,0 q -0.525,2.325 -2.25,4.575 -1.725,2.175 -4.125,3.6 -2.4,1.35 -6.375,1.575 l -15.225,0 0,9.45 33.75,0 0,9.3 -43.725,0 0,-28.5 z m -1.125,-6.75 -1.5,-1.125 0,-12.375 1.5,-1.125 45.975,0 1.5,1.125 0,12.375 -1.5,1.125 -45.975,0 z m 44.85,-2.625 0,-9.375 -43.725,0 0,9.375 43.725,0 z"
         style="fill:#f2d91a;fill-opacity:1"
         id="path4186" />
      <path
         d="m 207.4875,783.21094 q 0,3.225 -1.65,6.075 -1.65,2.85 -3.525,4.5 -1.8,1.575 -4.725,3 -2.925,1.425 -6.675,1.425 l 0,2.625 q 6.225,0 9.15,1.8 3,1.725 5.025,5.1 2.025,3.375 2.025,6.225 l 0,3 -52.8,0 -1.5,-1.125 0,-32.625 15.225,0 0,17.625 12.75,0 0,-2.625 -8.475,0 0,-15 35.175,0 z m -32.55,2.625 0,9.75 8.25,0 0,7.875 -17.775,0 0,-17.625 -9.975,0 0,28.5 49.125,0 q 0,-1.875 -1.05,-4.125 -1.05,-2.325 -3.75,-4.725 -2.625,-2.4 -11.775,-2.175 l 0,-7.725 q 5.475,0 8.7,-1.5 3.3,-1.5 5.025,-3.375 2.025,-2.175 2.775,-4.875 l -29.55,0 z m -22.125,-20.25 1.5,-1.2 37.2,0 q 3.375,0 6.3,1.35 3,1.35 5.175,3.45 2.25,2.1 3.45,4.875 1.275,2.7 1.275,5.025 l -54.9,0 0,-13.5 z m 39.075,1.5 -36.45,0 0,9.375 48.9,0 q -0.825,-3 -2.85,-4.95 -2.025,-2.025 -4.35,-3.225 -2.25,-1.2 -5.25,-1.2 z"
         style="fill:#f2d91a;fill-opacity:1"
         id="path4188" />
      <path
         d="m 208.62305,766.26094 1.65,-1.8 17.325,0 1.65,1.8 0,11.025 -1.65,1.8 -17.325,0 -1.65,-1.8 0,-11.025 z m 2.625,10.2 15.375,0 0,-9.375 -15.375,0 0,9.375 z m 55.125,8.775 1.65,-1.8 11.85,0 1.65,1.8 0,29.925 -1.65,1.8 -11.85,0 -1.65,-1.8 0,-29.925 z m 2.625,29.1 9.9,0 0,-28.275 -9.9,0 0,28.275 z m 53.4,-30.9 q 0,0 -0.15,1.05 -0.075,0.975 -0.6,2.55 -0.525,1.5 -1.575,3.375 -1.05,1.8 -2.85,3.45 -1.8,1.575 -4.575,2.775 -2.775,1.2 -6.525,1.575 l 16.275,15.825 0,2.925 -16.875,0 -21.3,-21.9 0,-9.825 1.65,-1.8 36.525,0 z m -35.55,10.8 20.025,20.1 12,0 -18.975,-18.75 5.625,0 q 4.275,-0.3 6.825,-1.725 2.625,-1.5 4.2,-3.3 1.875,-2.1 2.4,-4.5 l -32.1,0 0,8.175 z m 19.575,-29.775 q 3.375,0 6.3,1.35 3,1.35 5.175,3.375 2.25,1.95 3.375,4.5 1.2,2.55 1.125,5.4 l -73.575,0 q -1.275,0 -1.275,1.2 l 0,34.875 -1.725,1.8 -11.775,0 -1.65,-1.8 0,-36.825 q 0,-2.7 1.425,-5.175 1.425,-2.55 3.45,-4.425 2.1,-1.95 4.275,-3.075 2.25,-1.2 4.2,-1.2 l 60.675,0 z m 12.525,12 q 0,-0.975 -0.75,-2.25 -0.75,-1.35 -2.55,-3 -1.725,-1.725 -3.9,-2.775 -2.1,-1.125 -5.85,-1.35 l -58.65,0 q -3.15,0 -5.325,1.35 -2.175,1.35 -3.975,3.45 -1.8,2.025 -2.4,3.9 -0.525,1.8 -0.525,3.45 l 0,35.1 9.825,0 0,-34.275 q 0,-0.525 0.3,-1.125 0.3,-0.675 0.75,-1.2 0.45,-0.525 0.975,-0.9 0.6,-0.375 1.275,-0.375 l 70.8,0 z"
         style="fill:#00c2cc;fill-opacity:1"
         id="path4190" />
      <path
         d="m 323.90625,790.71094 q 0,-5.4 2.1,-10.2 2.175,-4.8 5.7,-8.325 3.6,-3.525 8.475,-5.625 4.875,-2.1 10.5,-2.1 5.55,0 10.425,2.1 4.95,2.1 8.475,5.625 3.6,3.525 5.7,8.325 2.175,4.8 2.175,10.2 0,5.475 -2.175,10.275 -2.1,4.8 -5.7,8.325 -3.525,3.525 -8.475,5.625 -4.875,2.025 -10.425,2.025 -5.625,0 -10.5,-2.025 -4.875,-2.1 -8.475,-5.625 -3.525,-3.525 -5.7,-8.325 -2.1,-4.8 -2.1,-10.275 z m 2.7,0 q 0,4.8 1.875,9.15 1.95,4.35 5.175,7.575 3.3,3.15 7.725,5.025 4.425,1.875 9.375,1.875 4.95,0 9.375,-1.875 4.5,-1.875 7.8,-5.025 3.3,-3.225 5.175,-7.575 1.95,-4.35 1.95,-9.15 0,-4.8 -1.95,-9.15 -1.875,-4.35 -5.175,-7.5 -3.3,-3.225 -7.8,-5.1 -4.425,-1.875 -9.375,-1.875 -4.95,0 -9.375,1.875 -4.425,1.875 -7.725,5.1 -3.225,3.15 -5.175,7.5 -1.875,4.35 -1.875,9.15 z m 9.9,0.375 q 0,-2.925 1.125,-5.475 1.125,-2.55 3.075,-4.425 1.95,-1.95 4.575,-3.075 2.625,-1.125 5.55,-1.125 2.925,0 5.55,1.125 2.7,1.125 4.65,3.075 1.95,1.875 3.075,4.425 1.2,2.55 1.2,5.475 0,2.925 -1.2,5.475 -1.125,2.55 -3.075,4.5 -1.95,1.875 -4.65,3 -2.625,1.05 -5.55,1.05 -2.925,0 -5.55,-1.05 -2.625,-1.125 -4.575,-3 -1.95,-1.95 -3.075,-4.5 -1.125,-2.55 -1.125,-5.475 z m 2.625,0 q 0,2.4 0.9,4.425 0.975,2.025 2.55,3.6 1.65,1.575 3.75,2.475 2.175,0.9 4.575,0.9 2.325,0 4.425,-0.9 2.175,-0.9 3.825,-2.475 1.65,-1.575 2.55,-3.6 0.975,-2.025 0.975,-4.425 0,-2.4 -0.975,-4.425 -0.9,-2.025 -2.55,-3.6 -1.65,-1.575 -3.825,-2.475 -2.1,-0.975 -4.425,-0.975 -2.4,0 -4.575,0.975 -2.1,0.9 -3.75,2.475 -1.575,1.575 -2.55,3.6 -0.9,2.025 -0.9,4.425 z"
         style="fill:#00c2cc;fill-opacity:1"
         id="path4192" />
      <path
         d="m 391.43437,814.33594 0,-21.3 11.7,0 0,-6.3 -17.25,-19.65 -4.275,0 0,47.25 9.825,0 z m -10.8,2.625 -1.65,-1.8 0,-48.9 1.65,-1.8 6.07501,0 19.04999,21.3 0,8.1 -1.65,1.8 -10.05,0 0,19.5 -1.65,1.8 -11.775,0 z m 40.20001,-49.875 0,21.3 -11.70001,0 0,6.3 17.25,19.65 4.275,0 0,-47.25 -9.82499,0 z m 10.79999,-2.625 1.65,1.8 0,48.9 -1.65,1.8 -6.075,0 -19.05,-21.3 0,-8.1 1.65,-1.8 10.05001,0 0,-19.5 1.64999,-1.8 11.775,0 z"
         style="fill:#00c2cc;fill-opacity:1"
         id="path4194" />
    </g>
  </g>
</svg>
